<svg 
    xmlns="http://www.w3.org/2000/svg" 
    xmlns:xlink="http://www.w3.org/1999/xlink" 
    width="300" 
    zoomAndPan="magnify" 
    viewBox="0 0 224.87999 74.999997" 
    height="100" 
    preserveAspectRatio="xMidYMid meet" 
    version="1.0"
>
    <defs>
        <g/>
    </defs>
    <path 
        fill="rgb(100%, 100%, 100%)" 
        d="M 3.351562 3.367188 L 71.5625 3.367188 L 71.5625 71.582031 L 3.351562 71.582031 L 3.351562 3.367188 " 
        fill-opacity="1" 
        fill-rule="nonzero"
    />
    <g 
        fill="rgb(21.958923%, 64.709473%, 46.269226%)" 
        fill-opacity="1"
    >
    <g 
        transform="translate(15.299005, 63.551893)"
    >
    <g>
        <path 
            d="M 40.925781 -53.152344 L 6.667969 -53.152344 C 6.46875 -52.347656 6.46875 -51.234375 6.667969 -50.527344 L 37.492188 -50.527344 L 3.132812 -2.628906 C 2.929688 -1.820312 2.929688 -0.808594 3.132812 0 L 40.722656 0 C 40.925781 -0.808594 40.925781 -1.921875 40.722656 -2.628906 L 6.570312 -2.628906 L 40.925781 -50.527344 C 41.128906 -51.335938 41.128906 -52.347656 40.925781 -53.152344 Z M 40.925781 -53.152344 "
        />
    </g>
    </g>
    </g><g fill="rgb(100%, 100%, 100%)" fill-opacity="1"><g transform="translate(112.666407, 41.148055)"><g><path d="M 6.84375 -0.390625 L 1.210938 -0.390625 L 1.210938 -3.296875 L 4.847656 -3.296875 L 4.847656 -3.6875 L 1.210938 -3.6875 L 1.210938 -6.59375 L 6.84375 -6.59375 L 6.84375 -6.996094 L 0.820312 -6.996094 L 0.820312 0.0117188 L 6.84375 0.0117188 Z M 6.84375 -0.390625 "/></g></g></g><g fill="rgb(100%, 100%, 100%)" fill-opacity="1"><g transform="translate(120.349269, 41.148055)"><g><path d="M 6.785156 -6.996094 L 4.058594 -3.796875 L 1.339844 -6.996094 L 0.820312 -6.996094 L 3.796875 -3.496094 L 0.820312 0.0117188 L 1.339844 0.0117188 L 4.058594 -3.1875 L 6.785156 0.0117188 L 7.304688 0.0117188 L 4.316406 -3.496094 L 7.304688 -6.996094 Z M 6.785156 -6.996094 "/></g></g></g><g fill="rgb(100%, 100%, 100%)" fill-opacity="1"><g transform="translate(128.491709, 41.148055)"><g><path d="M 3.628906 0.0117188 L 4.027344 0.0117188 L 4.027344 -6.59375 L 6.84375 -6.59375 L 6.84375 -6.996094 L 0.820312 -6.996094 L 0.820312 -6.59375 L 3.628906 -6.59375 Z M 3.628906 0.0117188 "/></g></g></g><g fill="rgb(100%, 100%, 100%)" fill-opacity="1"><g transform="translate(136.174571, 41.148055)"><g><path d="M 6.84375 -5.144531 C 6.84375 -6.164062 6.015625 -6.996094 4.996094 -6.996094 L 0.820312 -6.996094 L 0.820312 0 L 1.210938 0 L 1.210938 -3.296875 L 3.738281 -3.296875 L 6.554688 0.0117188 L 7.074219 0.0117188 L 4.257812 -3.296875 L 4.996094 -3.296875 C 6.015625 -3.296875 6.84375 -4.125 6.84375 -5.144531 Z M 1.210938 -6.59375 L 4.996094 -6.59375 C 5.796875 -6.59375 6.445312 -5.945312 6.445312 -5.144531 C 6.445312 -4.335938 5.796875 -3.6875 4.996094 -3.6875 L 1.210938 -3.6875 Z M 1.210938 -6.59375 "/></g></g></g><g fill="rgb(100%, 100%, 100%)" fill-opacity="1"><g transform="translate(144.087222, 41.148055)"><g><path d="M 1.25 0.0117188 L 1.886719 -1.5 L 5.976562 -1.5 L 6.613281 0.0117188 L 7.042969 0.0117188 L 4.058594 -6.996094 L 3.796875 -6.996094 L 0.820312 0.0117188 Z M 3.925781 -6.285156 L 5.804688 -1.886719 L 2.046875 -1.886719 L 2.058594 -1.886719 Z M 3.925781 -6.285156 "/></g></g></g><g fill="rgb(100%, 100%, 100%)" fill-opacity="1"><g transform="translate(151.969905, 41.148055)"><g><path d="M 0.820312 -3.496094 C 0.820312 -2.558594 1.179688 -1.679688 1.839844 -1.019531 C 2.496094 -0.359375 3.378906 0.0117188 4.316406 0.0117188 C 5.246094 0.0117188 6.125 -0.359375 6.785156 -1.019531 L 6.503906 -1.300781 C 5.914062 -0.710938 5.136719 -0.390625 4.316406 -0.390625 C 3.488281 -0.390625 2.707031 -0.710938 2.117188 -1.300781 C 1.527344 -1.886719 1.210938 -2.667969 1.210938 -3.496094 C 1.210938 -4.316406 1.527344 -5.097656 2.117188 -5.683594 C 2.707031 -6.273438 3.488281 -6.59375 4.316406 -6.59375 C 5.136719 -6.59375 5.914062 -6.273438 6.503906 -5.683594 L 6.785156 -5.964844 C 6.125 -6.625 5.246094 -6.996094 4.316406 -6.996094 C 3.378906 -6.996094 2.496094 -6.625 1.839844 -5.964844 C 1.179688 -5.304688 0.820312 -4.425781 0.820312 -3.496094 Z M 0.820312 -3.496094 "/></g></g></g><g fill="rgb(100%, 100%, 100%)" fill-opacity="1"><g transform="translate(159.592832, 41.148055)"><g><path d="M 3.628906 0.0117188 L 4.027344 0.0117188 L 4.027344 -6.59375 L 6.84375 -6.59375 L 6.84375 -6.996094 L 0.820312 -6.996094 L 0.820312 -6.59375 L 3.628906 -6.59375 Z M 3.628906 0.0117188 "/></g></g></g><g fill="rgb(100%, 100%, 100%)" fill-opacity="1"><g transform="translate(167.275694, 41.148055)"><g><path d="M 4.316406 0.0117188 C 6.234375 0.0117188 7.8125 -1.570312 7.8125 -3.488281 C 7.8125 -5.414062 6.234375 -6.996094 4.316406 -6.996094 C 2.386719 -6.996094 0.820312 -5.414062 0.820312 -3.488281 C 0.820312 -1.570312 2.386719 0.0117188 4.316406 0.0117188 Z M 4.316406 -6.59375 C 6.023438 -6.59375 7.414062 -5.207031 7.414062 -3.496094 C 7.414062 -1.777344 6.023438 -0.390625 4.316406 -0.390625 C 2.597656 -0.390625 1.210938 -1.777344 1.210938 -3.496094 C 1.210938 -5.207031 2.597656 -6.59375 4.316406 -6.59375 Z M 4.316406 -6.59375 "/></g></g></g><g fill="rgb(100%, 100%, 100%)" fill-opacity="1"><g transform="translate(175.917665, 41.148055)"><g>
        <path d="M 6.84375 -5.144531 C 6.84375 -6.164062 6.015625 -6.996094 4.996094 -6.996094 L 0.820312 -6.996094 L 0.820312 0 L 1.210938 0 L 1.210938 -3.296875 L 3.738281 -3.296875 L 6.554688 0.0117188 L 7.074219 0.0117188 L 4.257812 -3.296875 L 4.996094 -3.296875 C 6.015625 -3.296875 6.84375 -4.125 6.84375 -5.144531 Z M 1.210938 -6.59375 L 4.996094 -6.59375 C 5.796875 -6.59375 6.445312 -5.945312 6.445312 -5.144531 C 6.445312 -4.335938 5.796875 -3.6875 4.996094 -3.6875 L 1.210938 -3.6875 Z M 1.210938 -6.59375 "/>
    </g>
    </g>
    </g>
</svg>